<?xml version="1.0" ?><svg xmlns="http://www.w3.org/2000/svg" xmlns:xlink="http://www.w3.org/1999/xlink" version="1.1" viewBox="0 0 512 512" style="enable-background:new 0 0 512 512;" xml:space="preserve"><g id="_x34_5_x2C__Product_x2C__Item_x2C__Goods_x2C__Merchandise_x2C__Offering_x2C__Stock"><g><g><rect x="181" y="205.999" style="fill:#FFFFFF;" width="52.333" height="68"/><polygon style="fill:#FFFFFF;" points="233.333,168.499 233.333,210.999 181,210.999 151,210.999 211,143.499    "/><rect x="226" y="88.666" style="fill:#9DCAFC;" width="80" height="185.334"/><rect x="286" y="183.666" style="fill:#FFFFFF;" width="60" height="90.333"/><polygon style="fill:#FFFFFF;" points="316,123.499 376,190.999 256,190.999    "/><polygon style="fill:#9DCAFC;" points="266,5.999 346,95.999 186,95.999    "/><polygon style="fill:#9DCAFC;" points="256,506 81,506 81,346 256,266 271,397.666    "/><path style="fill:#9DCAFC;" d="M431,346v135l-87.5,12.5L256,481V266L431,346z"/><rect x="306" y="421" style="fill:#FFFFFF;" width="75" height="35"/><rect x="131" y="346" style="fill:#FFFFFF;" width="40" height="40"/><rect x="256" y="481" style="fill:#FFFFFF;" width="175" height="25"/><polygon style="fill:#FFFFFF;" points="431,266 466,346 431,346 291,346 256,266    "/><polygon style="fill:#FFFFFF;" points="256,266 221,346 171,346 131,346 81,346 46,346 81,266    "/><path style="fill:#4269A7;" d="M470.581,343.996c-8.706-19.898-26.968-61.642-35-80c-0.749-1.713-2.52-2.996-4.581-2.996h-80v-65     h25c4.306,0,6.598-5.103,3.737-8.322l-60-67.5c-1.987-2.235-5.485-2.237-7.475,0l-1.263,1.42v-20.598h35     c4.306,0,6.598-5.103,3.737-8.322l-80-90c-1.987-2.235-5.485-2.237-7.475,0l-80,90c-2.86,3.219-0.57,8.322,3.737,8.322h35v46.226     l-6.263-7.047c-1.986-2.236-5.485-2.238-7.475-0.001l-60,67.5c-2.86,3.219-0.57,8.322,3.737,8.322h25v45H81     c-1.929,0-3.788,1.183-4.581,2.996c-8.052,18.406-26.303,60.12-35,80C39.976,347.295,42.396,351,46,351h30v155     c0,2.762,2.238,5,5,5c19.422,0,330.578,0,350.001,0c2.762,0,5-2.238,5-5V351h30C469.6,351,472.025,347.298,470.581,343.996z      M341,261h-50v-65h50V261z M316,131.026l48.866,54.974c-36.878,0-60.695,0-97.733,0L316,131.026z M266,13.526l68.866,77.474     c-26.361,0-104.545,0-137.733,0L266,13.526z M301,100.999v31.848l-48.737,54.83c-2.86,3.219-0.57,8.322,3.737,8.322h25v65     c-15.913,0-34.087,0-50,0v-160H301z M210.999,151.026L221,162.28v43.72c-6.345,0-52.851,0-58.866,0L210.999,151.026z      M186,215.999h35v45h-35V215.999z M84.27,271c5.35,0,155.369,0,164.084,0l-30.625,70c-16.178,0-145.22,0-164.084,0L84.27,271z      M136,351h30v30h-30V351z M86,351h40v35c0,2.762,2.238,5,5,5h40c2.762,0,5-2.238,5-5v-35h45c1.986,0,3.784-1.176,4.581-2.996     L251,289.903V501H86V351z M261,501v-15h165v15H261z M426,476H261V289.903l25.419,58.101c0.797,1.82,2.595,2.996,4.581,2.996h135     V476z M294.271,341l-30.625-70c20.049,0,144.17,0,164.084,0l30.625,70H294.271z"/><path style="fill:#4269A7;" d="M306,461h75c2.762,0,5-2.238,5-5v-35c0-2.762-2.238-5-5-5h-75c-2.762,0-5,2.238-5,5v35     C301,458.762,303.238,461,306,461z M311,426h65v25h-65V426z"/></g></g></g><g id="Layer_1"/></svg>